<?xml version="1.0" standalone="no"?>
<!DOCTYPE svg PUBLIC "-//W3C//DTD SVG 20010904//EN"
 "http://www.w3.org/TR/2001/REC-SVG-20010904/DTD/svg10.dtd">
<svg version="1.0" xmlns="http://www.w3.org/2000/svg"
 width="800.000000pt" height="800.000000pt" viewBox="0 0 800.000000 800.000000"
 preserveAspectRatio="xMidYMid meet">
<metadata>
Created by potrace 1.11, written by Peter Selinger 2001-2013
</metadata>
<g transform="translate(0.000000,800.000000) scale(0.100000,-0.100000)"
fill="#000000" stroke="none">
<path d="M4020 5394 c-310 -35 -516 -93 -733 -206 -176 -92 -350 -227 -474
-368 -350 -398 -484 -927 -367 -1448 32 -143 61 -227 125 -358 260 -536 800
-889 1425 -933 439 -31 929 101 1314 353 l100 66 0 605 0 605 -242 0 -243 0 0
-457 0 -458 -100 -52 c-110 -57 -294 -122 -425 -149 -102 -22 -350 -25 -450
-5 -393 75 -702 306 -867 647 -79 164 -105 273 -110 469 -4 137 -2 175 17 265
97 473 458 822 948 916 115 22 328 22 449 1 242 -44 507 -167 688 -321 l40
-34 150 196 c83 107 151 200 153 207 2 7 -30 37 -70 67 -256 192 -557 318
-888 373 -93 15 -370 27 -440 19z"/>
</g>
</svg>
